<?xml version="1.0" encoding="utf-8"?>
<!-- Generator: Adobe Illustrator 25.2.1, SVG Export Plug-In . SVG Version: 6.00 Build 0)  -->
<!DOCTYPE svg PUBLIC "-//W3C//DTD SVG 1.1//EN" "http://www.w3.org/Graphics/SVG/1.1/DTD/svg11.dtd" [
	<!ENTITY ns_extend "http://ns.adobe.com/Extensibility/1.0/">
	<!ENTITY ns_ai "http://ns.adobe.com/AdobeIllustrator/10.0/">
	<!ENTITY ns_graphs "http://ns.adobe.com/Graphs/1.0/">
	<!ENTITY ns_vars "http://ns.adobe.com/Variables/1.0/">
	<!ENTITY ns_imrep "http://ns.adobe.com/ImageReplacement/1.0/">
	<!ENTITY ns_sfw "http://ns.adobe.com/SaveForWeb/1.0/">
	<!ENTITY ns_custom "http://ns.adobe.com/GenericCustomNamespace/1.0/">
	<!ENTITY ns_adobe_xpath "http://ns.adobe.com/XPath/1.0/">
]>
<svg version="1.1" id="Capa_1" xmlns:x="&ns_extend;" xmlns:i="&ns_ai;" xmlns:graph="&ns_graphs;"
	 xmlns="http://www.w3.org/2000/svg" xmlns:xlink="http://www.w3.org/1999/xlink" x="0px" y="0px" viewBox="0 0 595.3 841.9"
	 style="enable-background:new 0 0 595.3 841.9;" xml:space="preserve">
<style type="text/css">
	.st0{fill:#141414;}
	.st1{fill:#70BE92;}
	.st2{fill:#FFFFFF;}
</style>
<metadata>
	<sfw  xmlns="&ns_sfw;">
		<slices></slices>
		<sliceSourceBounds  bottomLeftOrigin="true" height="2160" width="6013.4" x="-1148.7" y="-2057.7"></sliceSourceBounds>
	</sfw>
</metadata>
<rect x="-942.2" y="79" class="st0" width="251.2" height="85.8"/>
<rect x="-942.2" y="217.4" class="st1" width="251.2" height="85.8"/>
<text transform="matrix(1 0 0 1 -678.5961 278.5585)" style="font-family:'MyriadPro-Regular'; font-size:43.5831px;">#70be92</text>
<text transform="matrix(1 0 0 1 -678.5961 135.2042)" style="font-family:'MyriadPro-Regular'; font-size:43.5831px;">#141414</text>
<path class="st2" d="M581.6,372.4c0,12.6,0,25.1,0,37.7c-0.9,6.8-1.6,13.5-2.6,20.3c-8.1,55.9-30.4,105.4-67.8,147.8
	c-43.9,49.7-98.6,80.9-164.1,92.6c-10.1,1.8-20.4,3-30.6,4.4c-12.6,0-25.1,0-37.7,0c-6.7-0.9-13.5-1.7-20.2-2.6
	c-56.3-8.2-106.1-30.7-148.6-68.5C60.8,560.3,30,506,18.2,441.2c-1.9-10.3-3-20.8-4.5-31.1c0-12.6,0-25.1,0-37.7
	c1.3-9.3,2.2-18.6,3.8-27.9C27.7,286,53.2,235.3,94.7,193c42.5-43.3,93.6-70.6,153.5-81.2c10.1-1.8,20.4-3,30.6-4.5
	c12.6,0,25.1,0,37.7,0c3.6,0.5,7.3,1,10.9,1.4c51,5.7,97.5,23.2,138.6,54.1c60.2,45.2,97.5,104.8,111.1,179
	C578.9,351.9,580.1,362.2,581.6,372.4z M252.1,500.7c-12-2.6-23.8-4.5-35.3-7.6c-28.6-7.9-51.7-23.3-65.2-50.8
	c-7.3-14.8-10.5-30.6-12-46.9c-2.8-29.8,1.9-57.4,21.8-81.1c1.2-1.5,1.8-4.4,1.3-6.3c-4.7-16.7-4.2-33.2,0.4-49.7
	c3.8-13.9,5.2-14.6,19.6-11.5c17.6,3.8,33,12.5,48.2,21.7c2.2,1.4,5.6,2.2,8.1,1.6c39.3-10.4,78.5-10.3,117.7,0
	c2.3,0.6,5.4-0.2,7.6-1.3c10.5-5.4,20.5-12,31.3-16.4c8.7-3.6,18.4-4.8,27.8-6.6c1.7-0.3,5.1,1.7,5.7,3.3c6.9,18.6,9.3,37.6,3.6,57
	c-1.2,4.1-0.4,6.7,2.2,9.9c8.8,10.5,14.7,22.5,18.1,35.7c4.6,17.7,3.7,35.5,1.4,53.4c-2.3,17.2-7.4,33.5-17.1,48.1
	c-16.1,24.1-40.1,35.8-67.3,42.1c-8.8,2-17.8,3.4-27.1,5.2c11.4,11.8,15.4,25.8,15.6,41c0.3,23.3,0.1,46.6,0.2,69.9
	c0,13.5,7.6,19.1,20.1,14.7c137.7-48.7,203.8-201.3,146.8-333.3c-54-125.2-194.7-182.2-321.3-131.8
	C97.7,203.2,32.9,318.3,52.8,431.5c12.7,72.8,50.5,129.5,112.5,169.8c15.8,10.3,32.8,18.3,50.7,24.4c12.8,4.3,20.6-1.3,20.6-14.9
	c0-11.1,0-22.2,0-33.3c0-1.7-0.2-3.5-0.3-5.2c-6.4,0.8-12.2,1.8-18.1,2.3c-28.2,2.3-56.6-8.4-67.9-39.1c-5.2-14-14-25.5-27-33.4
	c-2.6-1.6-4.9-3.9-7-6.3c-2.6-3-1.6-5.8,2.1-6.7c3.3-0.8,7-1.3,10.4-0.9c16.1,2.1,27.4,11.6,35.4,25c16.4,27.7,42.4,32,69.5,21.7
	c1.6-0.6,3.6-2.4,3.9-3.9C239.7,519.6,244.2,509.3,252.1,500.7z"/>
<image style="overflow:visible;" width="3840" height="2160" xlink:href="indeed.png"  transform="matrix(1 0 0 1 1024.7872 -102.2553)">
</image>
<path class="st2" d="M-581.7,1464.5c-14.1,20.9-29.6,37.8-47.9,51.7c-7,5.3-9.4,10.9-9.6,19.8c-3.8,130.4-59,231.5-173,298
	c-40.7,23.7-85.6,34.8-132.6,38.6c-70.8,5.8-136.6-9.1-197.8-44.8c-2.1-1.2-4-2.6-5.9-5c61.6,3.9,117.2-11.5,168.4-49.9
	c-53.7-5.3-89.7-31.4-109.5-81.8c17.5,0,33.5,0,49.5,0c0.3-0.8,0.6-1.7,0.9-2.5c-57-17.6-87.8-55.5-92.2-115.7
	c9.5,3.6,17.6,7.2,26.1,9.6c8,2.3,16.4,3.2,25.2,3.7c-27-21.6-44.9-48.2-48.8-82.5c-3.4-29.6,1.6-51,14.9-73
	c40.9,48.8,91.2,84,151.3,104.7c29,10,58.9,15.6,90.5,17.4c-0.2-3.5-0.2-6.5-0.6-9.5c-7.2-50,17.2-98.1,61.3-121.3
	c44.5-23.4,98.8-16,135.5,18.7c4.1,3.9,7.7,4.9,12.6,3.2c21.8-7.6,43.6-15.3,65.5-23c-8.2,24.5-24.6,43.9-46.5,60.5
	c6.5-1.1,13.1-1.9,19.5-3.3c7.1-1.6,14.2-3.5,21.2-5.7C-597.1,1470.2-590.6,1467.7-581.7,1464.5z"/>
</svg>
