<?xml version="1.0" encoding="utf-8"?>
<!-- Generator: Adobe Illustrator 25.2.1, SVG Export Plug-In . SVG Version: 6.00 Build 0)  -->
<!DOCTYPE svg PUBLIC "-//W3C//DTD SVG 1.1//EN" "http://www.w3.org/Graphics/SVG/1.1/DTD/svg11.dtd" [
	<!ENTITY ns_extend "http://ns.adobe.com/Extensibility/1.0/">
	<!ENTITY ns_ai "http://ns.adobe.com/AdobeIllustrator/10.0/">
	<!ENTITY ns_graphs "http://ns.adobe.com/Graphs/1.0/">
	<!ENTITY ns_vars "http://ns.adobe.com/Variables/1.0/">
	<!ENTITY ns_imrep "http://ns.adobe.com/ImageReplacement/1.0/">
	<!ENTITY ns_sfw "http://ns.adobe.com/SaveForWeb/1.0/">
	<!ENTITY ns_custom "http://ns.adobe.com/GenericCustomNamespace/1.0/">
	<!ENTITY ns_adobe_xpath "http://ns.adobe.com/XPath/1.0/">
]>
<svg version="1.1" id="Capa_1" xmlns:x="&ns_extend;" xmlns:i="&ns_ai;" xmlns:graph="&ns_graphs;"
	 xmlns="http://www.w3.org/2000/svg" xmlns:xlink="http://www.w3.org/1999/xlink" x="0px" y="0px" viewBox="0 0 595.3 841.9"
	 style="enable-background:new 0 0 595.3 841.9;" xml:space="preserve">
<style type="text/css">
	.st0{fill:#141414;}
	.st1{fill:#70BE92;}
	.st2{fill:#FFFFFF;}
</style>
<metadata>
	<sfw  xmlns="&ns_sfw;">
		<slices></slices>
		<sliceSourceBounds  bottomLeftOrigin="true" height="2576.7" width="5807" x="-942.2" y="-2057.7"></sliceSourceBounds>
	</sfw>
</metadata>
<rect x="-942.2" y="79" class="st0" width="251.2" height="85.8"/>
<rect x="-942.2" y="217.4" class="st1" width="251.2" height="85.8"/>
<text transform="matrix(1 0 0 1 -678.5961 278.5585)" style="font-family:'MyriadPro-Regular'; font-size:43.5831px;">#70be92</text>
<text transform="matrix(1 0 0 1 -678.5961 135.2042)" style="font-family:'MyriadPro-Regular'; font-size:43.5831px;">#141414</text>
<image style="overflow:visible;" width="512" height="512" xlink:href="github.png"  transform="matrix(1 0 0 1 918.5745 441.0638)">
</image>
<image style="overflow:visible;" width="3840" height="2160" xlink:href="indeed.png"  transform="matrix(1 0 0 1 1024.7872 -102.2553)">
</image>
<image style="overflow:visible;" width="3840" height="2160" xlink:href="instagram.png"  transform="matrix(1 0 0 1 918.5745 -518.9362)">
</image>
<image style="overflow:visible;" width="1687" height="1687" xlink:href="twitter.png"  transform="matrix(0.4048 0 0 0.4048 -865.1571 762.3536)">
</image>
<path class="st2" d="M583.6,244.4c-14.1,20.9-29.6,37.8-47.9,51.7c-7,5.3-9.4,10.9-9.6,19.8c-3.8,130.4-59,231.5-173,298
	c-40.7,23.7-85.6,34.8-132.6,38.6c-70.8,5.8-136.6-9.1-197.8-44.8c-2.1-1.2-4-2.6-5.9-5c61.6,3.9,117.2-11.5,168.4-49.9
	c-53.7-5.3-89.7-31.4-109.5-81.8c17.5,0,33.5,0,49.5,0c0.3-0.8,0.6-1.7,0.9-2.5c-57-17.6-87.8-55.5-92.2-115.7
	c9.5,3.6,17.6,7.2,26.1,9.6c8,2.3,16.4,3.2,25.2,3.7c-27-21.6-44.9-48.2-48.8-82.5c-3.4-29.6,1.6-51,14.9-73
	c40.9,48.8,91.2,84,151.3,104.7c29,10,58.9,15.6,90.5,17.4c-0.2-3.5-0.2-6.5-0.6-9.5c-7.2-50,17.2-98.1,61.3-121.3
	c44.5-23.4,98.8-16,135.5,18.7c4.1,3.9,7.7,4.9,12.6,3.2c21.8-7.6,43.6-15.3,65.5-23c-8.2,24.5-24.6,43.9-46.5,60.5
	c6.5-1.1,13.1-1.9,19.5-3.3c7.1-1.6,14.2-3.5,21.2-5.7C568.1,250.1,574.6,247.6,583.6,244.4z"/>
</svg>
